<svg id="Слой_1" data-name="Слой 1" xmlns="http://www.w3.org/2000/svg" xmlns:xlink="http://www.w3.org/1999/xlink" viewBox="0 0 150 190"><defs><style>.cls-1{fill-rule:evenodd;fill:url(#linear-gradient);}</style><linearGradient id="linear-gradient" x1="75" y1="61.9" x2="75" y2="147.89" gradientUnits="userSpaceOnUse"><stop offset="0" stop-color="#0096ff"/><stop offset="1"/></linearGradient></defs><title>Монтажная область 35</title><path class="cls-1" d="M92.72,107.34l5.9,21.18,26.11,2.62c-4.07,7.48-14.84,13-31.92,10.85-15.79-2-17.45,5.9-28.14,5.9-33,0-39.4-26.73-39.4-26.73l23,2.31-.71-9.86S59,99.87,61.69,75.83c11.93-20.1,36.21-16.58,44.72-1.25l-14,.33c1,3.61-3,6.93-6.11,7.15l3.83,11,5.26,3-11.3,8.35,1,3.19ZM67,92.49l-1.48,12.77,12.17,2.11,1-3.19Zm-6.81,28.38,1.05,2.24c14.19,0,21.61-3.14,21.61-3.14l8.56,3.73,1-1.48C86.69,111.92,71.26,112.57,60.22,120.87Z"/></svg>